<?xml version="1.0" encoding="utf-8" ?><svg xmlns="http://www.w3.org/2000/svg" xmlns:xlink="http://www.w3.org/1999/xlink" width="1024" height="1024" viewBox="0 0 1024 1024"><path d="M777.726 168.704C791.766 166.912 799.592 169.111 801.588 184.171C804.138 203.411 802.733 221.923 799.473 240.92C785.987 319.504 723.429 368.874 654.3 399.774C638.71 406.659 622.881 412.991 606.842 418.756C597.696 422.089 581.436 427.341 573.214 431.864C560.879 438.65 550.228 460.14 544.09 472.958C515.227 533.233 505.983 602.668 507.771 668.978C508.123 682.046 508.312 696.453 510.204 709.177C511.384 692.211 511.732 675.017 512.867 657.962C514.958 621.773 519.905 585.805 527.659 550.395C529.316 543.113 532.4 528.423 535.345 521.968C536.1 523.096 536.983 524.607 537.536 525.851C561.49 579.743 582.29 636.029 589.631 694.877C592.714 719.598 592.504 747.19 584.032 771.269C573.686 800.675 553.4 835.217 525.87 851.494C494.048 868.671 459.584 814.558 448.094 790.699C433.396 759.986 430.393 734.21 433.993 700.581C438.233 657.631 450.759 616.481 464.872 575.929C512.738 438.386 602.191 331.279 714.644 239.931C701.838 244.071 681.647 256.619 670.358 264.189C628.4 292.323 594.779 326.362 564.117 366.368C554.09 379.45 545.343 393.197 535.797 405.768C535.324 395.472 536.609 385.522 537.928 375.337C553.103 258.17 664.2 178.107 777.726 168.704Z"/><path d="M233.197 168.563C235.222 168.43 237.25 168.374 239.279 168.397C250.968 168.471 263.974 170.47 275.479 172.625C331.515 182.966 383.108 210.029 423.47 250.252C465.084 292.343 488.767 346.606 488.487 406.076C482.366 398.135 476.627 389.307 470.753 381.105C462.295 369.354 453.456 357.882 444.251 346.707C414.199 310.463 378.4 279.4 338.282 254.758C331.048 250.351 317.732 242.674 309.882 239.888C315.868 245.439 324.487 252.054 330.891 257.579C344.945 269.814 358.701 282.387 372.146 295.288C415.524 335.937 458.183 385.736 491.877 434.696C495.634 440.155 504.94 453.793 507.189 459.112C505.891 462.159 502.677 467.664 501.026 470.755C497.529 477.419 493.995 484.062 490.422 490.685C480.554 474.885 470.323 444.563 453.905 433.809C444.587 427.705 422.404 420.755 411.195 416.617C395.073 410.653 379.181 404.087 363.552 396.934C307.232 370.877 254.507 331.238 232.559 270.567C223.32 245.029 215.952 202.942 224.926 175.43C226.09 171.861 229.664 169.678 233.197 168.563Z"/></svg>