<?xml version="1.0" encoding="UTF-8"?>
<svg version="1.1" xmlns="http://www.w3.org/2000/svg" width="1024" height="1024">
<path d="M0 0 C2.74263879 -0.0024054 5.48525239 -0.01081886 8.22787952 -0.01890898 C14.14357027 -0.03321715 20.05911446 -0.0330042 25.97481155 -0.02272034 C34.77224952 -0.00746908 43.56956591 -0.01538762 52.36700329 -0.02755357 C68.08734792 -0.04852697 83.80762719 -0.04682688 99.52797791 -0.03523792 C113.28571824 -0.02514648 127.04343471 -0.02256245 140.80117798 -0.02732849 C141.71636563 -0.02763403 142.63155328 -0.02793957 143.5744739 -0.02825437 C147.29020304 -0.02949987 151.00593217 -0.03077349 154.72166129 -0.03209343 C189.52593244 -0.04430929 224.33016216 -0.0332676 259.13442691 -0.01170584 C290.00622542 0.00727434 320.87795792 0.00557574 351.74975586 -0.0135498 C386.49335459 -0.03500242 421.23691676 -0.04344269 455.9805212 -0.03110075 C459.68919308 -0.02981802 463.39786497 -0.02856665 467.10653687 -0.02732849 C468.0196007 -0.02701218 468.93266453 -0.02669587 469.87339697 -0.02636998 C483.61715632 -0.02183414 497.36088911 -0.02711488 511.10464478 -0.0372467 C526.74342275 -0.04871857 542.38212559 -0.04575054 558.02089429 -0.02412373 C566.75632346 -0.01243961 575.49158961 -0.01152274 584.22701431 -0.02670843 C590.08084149 -0.03575611 595.9345395 -0.02995674 601.78834772 -0.01268935 C605.11099725 -0.0032828 608.43306627 -0.00195412 611.75574362 -0.01431328 C668.91481321 -0.21044564 719.47900283 20.33819374 760.14135742 60.38293457 C770.96392296 71.26688986 779.77715302 83.55768907 787.95385742 96.50793457 C788.63061523 97.56883301 789.30737305 98.62973145 790.00463867 99.72277832 C810.12052872 132.98051236 816.60423918 170.2581133 816.46179199 208.55407715 C816.46419739 211.29671594 816.47261085 214.03932954 816.48070097 216.78195667 C816.49500914 222.69764741 816.49479619 228.61319161 816.48451233 234.5288887 C816.46926107 243.32632667 816.47717961 252.12364305 816.48934556 260.92108044 C816.51031897 276.64142507 816.50861887 292.36170434 816.49702991 308.08205506 C816.48693847 321.83979539 816.48435444 335.59751186 816.48912048 349.35525513 C816.48957879 350.72803661 816.48957879 350.72803661 816.49004636 352.12855104 C816.49129187 355.84428019 816.49256548 359.56000932 816.49388542 363.27573844 C816.50610128 398.08000959 816.49505959 432.8842393 816.47349783 467.68850406 C816.45451765 498.56030257 816.45621625 529.43203507 816.4753418 560.30383301 C816.49679441 595.04743174 816.50523468 629.79099391 816.49289274 664.53459835 C816.49161001 668.24327023 816.49035864 671.95194212 816.48912048 675.66061401 C816.48880417 676.57367785 816.48848786 677.48674168 816.48816197 678.42747412 C816.48362613 692.17123347 816.48890687 705.91496626 816.4990387 719.65872192 C816.51051056 735.2974999 816.50754253 750.93620274 816.48591572 766.57497144 C816.4742316 775.3104006 816.47331473 784.04566676 816.48850042 792.78109146 C816.49754811 798.63491864 816.49174873 804.48861665 816.47448134 810.34242487 C816.46507479 813.6650744 816.46374611 816.98714342 816.47610527 820.30982077 C816.67223763 877.46889035 796.12359825 928.03307998 756.07885742 968.69543457 C745.19490213 979.5180001 732.90410292 988.33123017 719.95385742 996.50793457 C718.89295898 997.18469238 717.83206055 997.8614502 716.73901367 998.55871582 C683.48127963 1018.67460587 646.20367869 1025.15831633 607.90771484 1025.01586914 C605.16507605 1025.01827454 602.42246245 1025.026688 599.67983532 1025.03477812 C593.76414458 1025.04908629 587.84860038 1025.04887334 581.93290329 1025.03858948 C573.13546532 1025.02333822 564.33814894 1025.03125676 555.54071155 1025.04342271 C539.82036692 1025.06439612 524.10008765 1025.06269602 508.37973693 1025.05110706 C494.6219966 1025.04101562 480.86428014 1025.03843159 467.10653687 1025.04319763 C465.73375539 1025.04365594 465.73375539 1025.04365594 464.33324095 1025.04412351 C460.61751181 1025.04536901 456.90178267 1025.04664263 453.18605356 1025.04796257 C418.3817824 1025.06017843 383.57755269 1025.04913674 348.77328794 1025.02757498 C317.90148942 1025.0085948 287.02975692 1025.0102934 256.15795898 1025.02941895 C221.41436025 1025.05087156 186.67079808 1025.05931183 151.92719364 1025.04696989 C148.21852176 1025.04568716 144.50984987 1025.04443579 140.80117798 1025.04319763 C139.88811414 1025.04288132 138.97505031 1025.04256501 138.03431787 1025.04223912 C124.29055852 1025.03770328 110.54682573 1025.04298402 96.80307007 1025.05311584 C81.16429209 1025.06458771 65.52558925 1025.06161968 49.88682055 1025.03999287 C41.15139139 1025.02830875 32.41612523 1025.02739188 23.68070054 1025.04257757 C17.82687335 1025.05162526 11.97317535 1025.04582588 6.11936713 1025.02855849 C2.79671759 1025.01915194 -0.52535143 1025.01782326 -3.84802878 1025.03018242 C-61.00709836 1025.22631478 -111.57128799 1004.6776754 -152.23364258 964.63293457 C-163.05620811 953.74897928 -171.86943818 941.45818007 -180.04614258 928.50793457 C-180.72290039 927.44703613 -181.3996582 926.3861377 -182.09692383 925.29309082 C-202.21281387 892.03535678 -208.69652434 854.75775584 -208.55407715 816.46179199 C-208.55648255 813.7191532 -208.56489601 810.9765396 -208.57298613 808.23391247 C-208.5872943 802.31822173 -208.58708135 796.40267753 -208.57679749 790.48698044 C-208.56154623 781.68954247 -208.56946476 772.89222609 -208.58163071 764.0947887 C-208.60260412 748.37444407 -208.60090403 732.6541648 -208.58931506 716.93381408 C-208.57922363 703.17607375 -208.57663959 689.41835729 -208.58140564 675.66061401 C-208.58171118 674.74542636 -208.58201672 673.83023871 -208.58233152 672.8873181 C-208.58357702 669.17158895 -208.58485064 665.45585982 -208.58617057 661.7401307 C-208.59838644 626.93585955 -208.58734475 592.13162984 -208.56578299 557.32736509 C-208.54680281 526.45556657 -208.54850141 495.58383407 -208.56762695 464.71203613 C-208.58907957 429.9684374 -208.59751984 395.22487523 -208.5851779 360.48127079 C-208.58389517 356.77259891 -208.5826438 353.06392702 -208.58140564 349.35525513 C-208.58108933 348.44219129 -208.58077302 347.52912746 -208.58044713 346.58839502 C-208.57591129 332.84463567 -208.58119203 319.10090288 -208.59132385 305.35714722 C-208.60279572 289.71836924 -208.59982768 274.0796664 -208.57820088 258.4408977 C-208.56651676 249.70546854 -208.56559989 240.97020238 -208.58078557 232.23477769 C-208.58983326 226.3809505 -208.58403389 220.52725249 -208.5667665 214.67344427 C-208.55735994 211.35079474 -208.55603127 208.02872572 -208.56839043 204.70604837 C-208.76452279 147.54697879 -188.21588341 96.98278916 -148.17114258 56.32043457 C-137.28718728 45.49786904 -124.99638808 36.68463897 -112.04614258 28.50793457 C-110.98524414 27.83117676 -109.9243457 27.15441895 -108.83129883 26.45715332 C-75.57356478 6.34126327 -38.29596385 -0.14244719 0 0 Z " fill="#FDFDFC" transform="translate(208.046142578125,-0.5079345703125)"/>
<path d="M0 0 C6.60907354 6.26122756 8.13030681 13.41439547 8.50244141 22.28930664 C8.85635758 38.50894233 8.5243022 54.28460598 5.375 70.25 C5.21451172 71.06452637 5.05402344 71.87905273 4.88867188 72.71826172 C3.83630763 77.92746473 2.64915599 83.09071264 1.375 88.25 C1.16359375 89.13171875 0.9521875 90.0134375 0.734375 90.921875 C-9.60027914 129.34558911 -37.1408035 164.69882939 -68.625 188.25 C-69.25954102 188.72856445 -69.89408203 189.20712891 -70.54785156 189.70019531 C-88.54868506 203.21535733 -107.53617405 214.14252793 -127.625 224.25 C-128.39827637 224.64396973 -129.17155273 225.03793945 -129.96826172 225.44384766 C-149.81198804 235.50101903 -170.91374572 243.1554634 -191.82617188 250.67260742 C-223.49784407 262.05791085 -236.60609871 274.93567891 -251.09716797 305.27563477 C-259.06702237 322.36026192 -265.87756648 339.99507354 -270.625 358.25 C-271.0286377 359.76883789 -271.0286377 359.76883789 -271.44042969 361.31835938 C-280.94465843 397.24164926 -285.8182729 433.55139813 -285.7578125 470.72265625 C-285.75848914 472.22619136 -285.75946214 473.72972636 -285.76071167 475.23326111 C-285.76216765 478.34651761 -285.7601002 481.45974499 -285.75537109 484.57299805 C-285.74962988 488.54345757 -285.75299367 492.51385012 -285.75894356 496.48430729 C-285.76256828 499.57366943 -285.76140257 502.66301583 -285.75881577 505.75237846 C-285.7581541 507.21666917 -285.75894796 508.68096135 -285.76129532 510.14525032 C-285.77019734 517.24441965 -285.75940497 524.22446215 -284.625 531.25 C-284.59185699 530.62455795 -284.55871399 529.99911591 -284.52456665 529.35472107 C-284.17204894 522.7169395 -283.81403337 516.07946918 -283.453125 509.44213867 C-283.31994 506.98029722 -283.18805804 504.51838486 -283.05761719 502.05639648 C-281.77581805 477.89448274 -279.84620705 454.01349951 -276.375 430.0625 C-276.22226624 428.99793579 -276.06953247 427.93337158 -275.91217041 426.83654785 C-273.64718772 411.12894434 -271.03625608 395.62355022 -267.32470703 380.18554688 C-266.60014982 377.14574372 -265.91945052 374.0983989 -265.24609375 371.046875 C-264.81103247 369.1143271 -264.37489461 367.18202113 -263.9375 365.25 C-263.74720215 364.38793945 -263.5569043 363.52587891 -263.36083984 362.63769531 C-262.40123116 358.54659987 -261.59236781 355.39694914 -258.625 352.25 C-242.09773393 385.40439478 -228.28334922 421.47782917 -218.625 457.25 C-218.34994629 458.25192383 -218.07489258 459.25384766 -217.79150391 460.28613281 C-213.37048897 476.47325664 -209.50647082 492.71603926 -206.625 509.25 C-206.3772583 510.63227783 -206.3772583 510.63227783 -206.12451172 512.04248047 C-198.87836788 554.01316469 -203.36609291 593.68619394 -223.625 631.25 C-223.94436523 631.85392578 -224.26373047 632.45785156 -224.59277344 633.08007812 C-229.42600058 642.17734018 -235.03155836 650.36281554 -241.625 658.25 C-242.05683594 658.76836426 -242.48867188 659.28672852 -242.93359375 659.82080078 C-251.2411351 669.65365109 -264.18777281 684.00002538 -277.625 685.25 C-278.32109375 685.32476563 -279.0171875 685.39953125 -279.734375 685.4765625 C-291.18235944 686.16927493 -300.27967847 680.544758 -308.625 673.25 C-309.41390625 672.60417969 -310.2028125 671.95835937 -311.015625 671.29296875 C-327.66716462 657.18105074 -339.71327933 636.94880344 -348.625 617.25 C-349.04023926 616.33468506 -349.04023926 616.33468506 -349.46386719 615.40087891 C-354.08744036 605.01317682 -357.05039238 594.29593506 -359.625 583.25 C-359.81336426 582.52449951 -360.00172852 581.79899902 -360.19580078 581.05151367 C-362.13499894 572.85541206 -362.02218448 564.55919376 -362 556.1875 C-361.99912384 555.3789859 -361.99824768 554.5704718 -361.99734497 553.73745728 C-361.8763059 519.53617254 -355.54204627 485.9308806 -345.625 453.25 C-345.18945801 451.78385254 -345.18945801 451.78385254 -344.74511719 450.28808594 C-335.95962869 420.77061053 -326.13228933 391.41371772 -313.625 363.25 C-312.99609863 361.82518311 -312.99609863 361.82518311 -312.35449219 360.37158203 C-301.64179792 336.22174046 -289.9056943 312.66277979 -276.28466797 290.01806641 C-274.68415829 287.34866677 -273.10639814 284.66717628 -271.53515625 281.98046875 C-264.72119129 270.38294028 -257.3675944 259.24654605 -249.625 248.25 C-248.95621826 247.29552979 -248.95621826 247.29552979 -248.27392578 246.32177734 C-238.08135701 231.79511359 -227.35966768 217.72144682 -216.08105469 204.02197266 C-214.78996651 202.45075905 -213.50761416 200.87237609 -212.2265625 199.29296875 C-202.44606799 187.23506668 -192.25537654 175.65083996 -181.59643555 164.36499023 C-179.23122763 161.82755418 -176.90799099 159.2535156 -174.578125 156.68359375 C-168.66076167 150.19323565 -162.49213132 143.96511246 -156.27172852 137.76635742 C-154.42541754 135.92545292 -152.58457727 134.07919728 -150.74414062 132.23242188 C-145.42311215 126.90839725 -140.11216131 121.63777126 -134.3762207 116.75610352 C-131.25458249 114.07139891 -128.30011612 111.2067958 -125.3125 108.375 C-120.11396569 103.48150152 -114.80509647 98.8388988 -109.22265625 94.3828125 C-106.48945114 92.13870725 -103.90363407 89.78132247 -101.3125 87.375 C-95.05369529 81.60601479 -88.37074966 76.42994791 -81.625 71.25 C-96.74218931 77.8203685 -111.14315024 85.7567564 -124.625 95.25 C-125.17075684 95.63124023 -125.71651367 96.01248047 -126.27880859 96.40527344 C-143.29507918 108.30563512 -159.32575547 121.20732167 -174.625 135.25 C-175.17381836 135.74838379 -175.72263672 136.24676758 -176.28808594 136.76025391 C-188.52419052 147.88307901 -200.05097454 159.52974431 -210.37109375 172.47265625 C-211.99908375 174.47872365 -213.64283086 176.43295776 -215.34765625 178.37109375 C-227.91345244 192.66206028 -238.71988885 208.2472072 -249.56640625 223.859375 C-250.58579557 225.32301553 -251.6053204 226.78656169 -252.625 228.25 C-253.11210449 228.95318359 -253.59920898 229.65636719 -254.10107422 230.38085938 C-255.25040016 232.02193058 -256.43394804 233.63895684 -257.625 235.25 C-257.955 235.25 -258.285 235.25 -258.625 235.25 C-260.02793379 175.07972841 -234.55287637 122.24038353 -193.625 79.25 C-192.94050781 78.52425781 -192.25601563 77.79851562 -191.55078125 77.05078125 C-187.21910121 72.5785193 -182.57540505 68.6097718 -177.71484375 64.72265625 C-175.53834288 62.98090524 -173.38960912 61.2235566 -171.25390625 59.43359375 C-161.60689234 51.42081673 -151.39856528 44.65399118 -140.625 38.25 C-139.88378906 37.80914062 -139.14257812 37.36828125 -138.37890625 36.9140625 C-111.7895414 21.27325965 -30.96381418 -19.18246049 0 0 Z " fill="#010101" transform="translate(794.625,169.75)"/>
<path d="M0 0 C29.28493786 12.65809089 55.17748388 30.36828909 78.66625977 51.8527832 C79.68123353 52.76366563 80.69688602 53.67379221 81.71313477 54.58325195 C87.41772185 59.7098334 92.81872642 64.89352217 97.66625977 70.8527832 C98.08842773 71.35729004 98.5105957 71.86179687 98.94555664 72.3815918 C107.02642054 82.03927722 114.13672181 92.08813121 120.66625977 102.8527832 C121.304104 103.89378174 121.304104 103.89378174 121.95483398 104.95581055 C135.27921104 126.94794846 143.91483662 151.63722951 148.66625977 176.8527832 C148.87508789 177.93043945 149.08391602 179.0080957 149.29907227 180.1184082 C151.09433498 191.00396943 150.86052823 201.85121037 150.66625977 212.8527832 C147.42170873 209.71992067 144.58953413 206.59075514 141.97875977 202.9152832 C141.29168945 201.95493164 140.60461914 200.99458008 139.89672852 200.00512695 C139.16067383 198.96485352 138.42461914 197.92458008 137.66625977 196.8527832 C131.18732415 187.69735656 124.58530035 178.68170771 117.66625977 169.8527832 C116.99981445 169.00200195 116.33336914 168.1512207 115.64672852 167.2746582 C107.36384583 156.815621 98.68920401 146.67933342 89.66625977 136.8527832 C89.15192383 136.2880127 88.63758789 135.72324219 88.10766602 135.14135742 C80.80384424 127.13119029 73.40187973 119.4138306 65.25415039 112.24926758 C63.555836 110.75567005 61.86930066 109.24930186 60.18188477 107.7434082 C51.0292016 99.6368506 41.48600468 92.13215604 31.66625977 84.8527832 C30.77173096 84.18617676 30.77173096 84.18617676 29.85913086 83.50610352 C16.76568176 73.79148859 2.95002808 65.12733371 -11.27124023 57.1652832 C-12.02244141 56.74311523 -12.77364258 56.32094727 -13.54760742 55.88598633 C-14.24917969 55.49991211 -14.95075195 55.11383789 -15.67358398 54.71606445 C-16.28580811 54.37873291 -16.89803223 54.04140137 -17.52880859 53.69384766 C-19.44037425 52.80309374 -21.27659996 52.29823701 -23.33374023 51.8527832 C-21.23100536 53.6669676 -19.12693749 55.47954109 -17.02124023 57.2902832 C-16.38694092 57.83579834 -15.7526416 58.38131348 -15.09912109 58.94335938 C-11.24527068 62.24672883 -7.3500499 65.48241136 -3.39624023 68.6652832 C0.30263437 71.66656303 3.71085099 74.78100857 7.02172852 78.20043945 C8.6746758 79.86123921 10.38877614 81.38900711 12.16625977 82.9152832 C18.15919879 88.08995556 23.88556054 93.55545568 29.6574707 98.97338867 C31.58336992 100.77523264 33.51774328 102.56742023 35.45532227 104.35668945 C43.36662502 111.68242005 51.09350425 119.1769872 58.72875977 126.7902832 C59.60935059 127.66628174 60.48994141 128.54228027 61.3972168 129.44482422 C65.77000541 133.82806205 69.99429939 138.27309574 74.02832031 142.96972656 C76.77140735 146.12331581 79.66645469 149.13226901 82.54125977 152.1652832 C87.4611975 157.3922698 92.12000659 162.71141182 96.59985352 168.3215332 C98.66738759 170.85416473 100.82739317 173.26009481 103.04125977 175.6652832 C107.56279488 180.63348644 111.67778182 185.86081897 115.79125977 191.1652832 C118.15627805 194.21338578 120.57006131 197.21806215 123.00048828 200.21411133 C137.85253691 218.56148106 151.81697994 237.86632701 164.47875977 257.7902832 C164.89351563 258.43441162 165.30827148 259.07854004 165.7355957 259.7421875 C167.83934216 263.11766223 169.30303005 265.88139732 169.66625977 269.8527832 C168.74169922 272.32885742 168.74169922 272.32885742 167.27954102 274.9074707 C166.75295898 275.85235352 166.22637695 276.79723633 165.68383789 277.77075195 C165.12116211 278.74657227 164.55848633 279.72239258 163.97875977 280.7277832 C163.16375 282.17991211 163.16375 282.17991211 162.33227539 283.66137695 C160.79135851 286.40037069 159.23234339 289.12811996 157.66625977 291.8527832 C156.8678054 293.2510624 156.06958327 294.64947428 155.27172852 296.0480957 C154.74192383 296.97364258 154.21211914 297.89918945 153.66625977 298.8527832 C150.15157449 295.72345276 148.32965884 292.58806377 146.31079102 288.35668945 C145.68132876 287.06172138 145.05176808 285.76680114 144.42211914 284.47192383 C143.45604901 282.45994507 142.49354356 280.44633721 141.53417969 278.43115234 C129.33921072 252.91703525 116.04002494 241.40598206 89.66625977 231.8527832 C68.68240648 224.18713707 48.02341661 216.0661516 27.66625977 206.8527832 C26.00143555 206.10279053 26.00143555 206.10279053 24.30297852 205.33764648 C-9.93399268 189.79262648 -45.00312118 168.12230997 -69.33374023 138.8527832 C-70.16389648 137.91047852 -70.99405273 136.96817383 -71.84936523 135.99731445 C-104.99708143 98.21832159 -118.48591914 49.46860658 -116.33374023 -0.1472168 C-115.66215531 -8.15214856 -114.67528421 -15.73370364 -108.33374023 -21.1472168 C-84.02710466 -36.33886403 -23.49228462 -9.89238749 0 0 Z " fill="#010101" transform="translate(337.333740234375,191.147216796875)"/>
</svg>
