<?xml version="1.0" encoding="UTF-8"?>
<svg version="1.1" xmlns="http://www.w3.org/2000/svg" width="1024" height="1024">
<path d="M0 0 C2.74263879 -0.0024054 5.48525239 -0.01081886 8.22787952 -0.01890898 C14.14357027 -0.03321715 20.05911446 -0.0330042 25.97481155 -0.02272034 C34.77224952 -0.00746908 43.56956591 -0.01538762 52.36700329 -0.02755357 C68.08734792 -0.04852697 83.80762719 -0.04682688 99.52797791 -0.03523792 C113.28571824 -0.02514648 127.04343471 -0.02256245 140.80117798 -0.02732849 C141.71636563 -0.02763403 142.63155328 -0.02793957 143.5744739 -0.02825437 C147.29020304 -0.02949987 151.00593217 -0.03077349 154.72166129 -0.03209343 C189.52593244 -0.04430929 224.33016216 -0.0332676 259.13442691 -0.01170584 C290.00622542 0.00727434 320.87795792 0.00557574 351.74975586 -0.0135498 C386.49335459 -0.03500242 421.23691676 -0.04344269 455.9805212 -0.03110075 C459.68919308 -0.02981802 463.39786497 -0.02856665 467.10653687 -0.02732849 C468.0196007 -0.02701218 468.93266453 -0.02669587 469.87339697 -0.02636998 C483.61715632 -0.02183414 497.36088911 -0.02711488 511.10464478 -0.0372467 C526.74342275 -0.04871857 542.38212559 -0.04575054 558.02089429 -0.02412373 C566.75632346 -0.01243961 575.49158961 -0.01152274 584.22701431 -0.02670843 C590.08084149 -0.03575611 595.9345395 -0.02995674 601.78834772 -0.01268935 C605.11099725 -0.0032828 608.43306627 -0.00195412 611.75574362 -0.01431328 C668.91481321 -0.21044564 719.47900283 20.33819374 760.14135742 60.38293457 C770.96392296 71.26688986 779.77715302 83.55768907 787.95385742 96.50793457 C788.63061523 97.56883301 789.30737305 98.62973145 790.00463867 99.72277832 C810.12052872 132.98051236 816.60423918 170.2581133 816.46179199 208.55407715 C816.46419739 211.29671594 816.47261085 214.03932954 816.48070097 216.78195667 C816.49500914 222.69764741 816.49479619 228.61319161 816.48451233 234.5288887 C816.46926107 243.32632667 816.47717961 252.12364305 816.48934556 260.92108044 C816.51031897 276.64142507 816.50861887 292.36170434 816.49702991 308.08205506 C816.48693847 321.83979539 816.48435444 335.59751186 816.48912048 349.35525513 C816.48957879 350.72803661 816.48957879 350.72803661 816.49004636 352.12855104 C816.49129187 355.84428019 816.49256548 359.56000932 816.49388542 363.27573844 C816.50610128 398.08000959 816.49505959 432.8842393 816.47349783 467.68850406 C816.45451765 498.56030257 816.45621625 529.43203507 816.4753418 560.30383301 C816.49679441 595.04743174 816.50523468 629.79099391 816.49289274 664.53459835 C816.49161001 668.24327023 816.49035864 671.95194212 816.48912048 675.66061401 C816.48880417 676.57367785 816.48848786 677.48674168 816.48816197 678.42747412 C816.48362613 692.17123347 816.48890687 705.91496626 816.4990387 719.65872192 C816.51051056 735.2974999 816.50754253 750.93620274 816.48591572 766.57497144 C816.4742316 775.3104006 816.47331473 784.04566676 816.48850042 792.78109146 C816.49754811 798.63491864 816.49174873 804.48861665 816.47448134 810.34242487 C816.46507479 813.6650744 816.46374611 816.98714342 816.47610527 820.30982077 C816.67223763 877.46889035 796.12359825 928.03307998 756.07885742 968.69543457 C745.19490213 979.5180001 732.90410292 988.33123017 719.95385742 996.50793457 C718.89295898 997.18469238 717.83206055 997.8614502 716.73901367 998.55871582 C683.48127963 1018.67460587 646.20367869 1025.15831633 607.90771484 1025.01586914 C605.16507605 1025.01827454 602.42246245 1025.026688 599.67983532 1025.03477812 C593.76414458 1025.04908629 587.84860038 1025.04887334 581.93290329 1025.03858948 C573.13546532 1025.02333822 564.33814894 1025.03125676 555.54071155 1025.04342271 C539.82036692 1025.06439612 524.10008765 1025.06269602 508.37973693 1025.05110706 C494.6219966 1025.04101562 480.86428014 1025.03843159 467.10653687 1025.04319763 C465.73375539 1025.04365594 465.73375539 1025.04365594 464.33324095 1025.04412351 C460.61751181 1025.04536901 456.90178267 1025.04664263 453.18605356 1025.04796257 C418.3817824 1025.06017843 383.57755269 1025.04913674 348.77328794 1025.02757498 C317.90148942 1025.0085948 287.02975692 1025.0102934 256.15795898 1025.02941895 C221.41436025 1025.05087156 186.67079808 1025.05931183 151.92719364 1025.04696989 C148.21852176 1025.04568716 144.50984987 1025.04443579 140.80117798 1025.04319763 C139.88811414 1025.04288132 138.97505031 1025.04256501 138.03431787 1025.04223912 C124.29055852 1025.03770328 110.54682573 1025.04298402 96.80307007 1025.05311584 C81.16429209 1025.06458771 65.52558925 1025.06161968 49.88682055 1025.03999287 C41.15139139 1025.02830875 32.41612523 1025.02739188 23.68070054 1025.04257757 C17.82687335 1025.05162526 11.97317535 1025.04582588 6.11936713 1025.02855849 C2.79671759 1025.01915194 -0.52535143 1025.01782326 -3.84802878 1025.03018242 C-61.00709836 1025.22631478 -111.57128799 1004.6776754 -152.23364258 964.63293457 C-163.05620811 953.74897928 -171.86943818 941.45818007 -180.04614258 928.50793457 C-180.72290039 927.44703613 -181.3996582 926.3861377 -182.09692383 925.29309082 C-202.21281387 892.03535678 -208.69652434 854.75775584 -208.55407715 816.46179199 C-208.55648255 813.7191532 -208.56489601 810.9765396 -208.57298613 808.23391247 C-208.5872943 802.31822173 -208.58708135 796.40267753 -208.57679749 790.48698044 C-208.56154623 781.68954247 -208.56946476 772.89222609 -208.58163071 764.0947887 C-208.60260412 748.37444407 -208.60090403 732.6541648 -208.58931506 716.93381408 C-208.57922363 703.17607375 -208.57663959 689.41835729 -208.58140564 675.66061401 C-208.58171118 674.74542636 -208.58201672 673.83023871 -208.58233152 672.8873181 C-208.58357702 669.17158895 -208.58485064 665.45585982 -208.58617057 661.7401307 C-208.59838644 626.93585955 -208.58734475 592.13162984 -208.56578299 557.32736509 C-208.54680281 526.45556657 -208.54850141 495.58383407 -208.56762695 464.71203613 C-208.58907957 429.9684374 -208.59751984 395.22487523 -208.5851779 360.48127079 C-208.58389517 356.77259891 -208.5826438 353.06392702 -208.58140564 349.35525513 C-208.58108933 348.44219129 -208.58077302 347.52912746 -208.58044713 346.58839502 C-208.57591129 332.84463567 -208.58119203 319.10090288 -208.59132385 305.35714722 C-208.60279572 289.71836924 -208.59982768 274.0796664 -208.57820088 258.4408977 C-208.56651676 249.70546854 -208.56559989 240.97020238 -208.58078557 232.23477769 C-208.58983326 226.3809505 -208.58403389 220.52725249 -208.5667665 214.67344427 C-208.55735994 211.35079474 -208.55603127 208.02872572 -208.56839043 204.70604837 C-208.76452279 147.54697879 -188.21588341 96.98278916 -148.17114258 56.32043457 C-137.28718728 45.49786904 -124.99638808 36.68463897 -112.04614258 28.50793457 C-110.98524414 27.83117676 -109.9243457 27.15441895 -108.83129883 26.45715332 C-75.57356478 6.34126327 -38.29596385 -0.14244719 0 0 Z " fill="#000000" transform="translate(208.046142578125,-0.5079345703125)"/>
<path d="M0 0 C7.72535443 7.52726841 8.48584574 15.99382887 8.703125 26.4140625 C8.7120642 28.9426979 8.70638792 31.47141935 8.6875 34 C8.68373352 34.66440094 8.67996704 35.32880188 8.67608643 36.01333618 C8.60810551 46.25830643 8.31831822 56.27731811 6.4375 66.375 C6.25977051 67.3546875 6.08204102 68.334375 5.89892578 69.34375 C0.53893786 97.99857801 -10.33781404 125.38688941 -28.5625 148.375 C-28.99723633 148.92397949 -29.43197266 149.47295898 -29.87988281 150.03857422 C-42.30969498 165.51049052 -56.51651659 179.68811279 -72.5625 191.375 C-73.67739922 192.20791066 -74.79198107 193.04124632 -75.90625 193.875 C-85.07740846 200.65678856 -94.71635392 206.62911827 -104.5625 212.375 C-105.3659082 212.84663574 -106.16931641 213.31827148 -106.99707031 213.80419922 C-134.73768573 229.93614828 -164.90319881 241.17196571 -194.98828125 252.06640625 C-196.19701904 252.50694336 -197.40575684 252.94748047 -198.65112305 253.40136719 C-200.92158548 254.22710389 -203.19497263 255.04486709 -205.47192383 255.85253906 C-230.87923952 265.072824 -240.43284659 283.08657388 -251.51147461 306.42016602 C-258.25751202 320.95591299 -264.28467846 335.91850902 -268.5625 351.375 C-269.01370498 352.91424377 -269.46558827 354.4532888 -269.91796875 355.9921875 C-280.1320394 391.35628129 -285.75568806 428.41556906 -285.6953125 465.23828125 C-285.69598917 466.72454341 -285.69696219 468.21080547 -285.69821167 469.69706726 C-285.69967297 472.79048735 -285.69758611 475.88387827 -285.69287109 478.97729492 C-285.68718994 482.88978319 -285.69045271 486.80220257 -285.69644356 490.7146883 C-285.7001049 493.77868645 -285.69888515 496.84266902 -285.69631577 499.90666771 C-285.695661 501.34677324 -285.69642241 502.7868803 -285.69879532 504.22698402 C-285.71219786 514.64550848 -285.26945614 524.98254313 -284.5625 535.375 C-284.53601883 534.75051971 -284.50953766 534.12603943 -284.48225403 533.4826355 C-282.22364317 480.78369962 -278.01604341 428.9779337 -266.5625 377.375 C-266.28575439 376.11550537 -266.28575439 376.11550537 -266.00341797 374.83056641 C-264.30161797 367.13312289 -262.44075252 359.72511378 -259.5625 352.375 C-257.35017991 355.15092551 -255.75906075 357.83303688 -254.3203125 361.07421875 C-253.90080322 362.01821533 -253.48129395 362.96221191 -253.04907227 363.93481445 C-252.59975342 364.96695068 -252.15043457 365.99908691 -251.6875 367.0625 C-251.20917725 368.15973389 -250.73085449 369.25696777 -250.23803711 370.38745117 C-236.22605036 402.8518271 -223.42564043 436.17289625 -215.22460938 470.62353516 C-214.51494303 473.57262796 -213.76733839 476.51057622 -213.015625 479.44921875 C-209.34994687 493.96742654 -206.54848075 508.53134331 -204.5625 523.375 C-204.4579248 524.11886963 -204.35334961 524.86273926 -204.24560547 525.62915039 C-203.25163048 533.80766193 -203.34050446 542.05892416 -203.32226562 550.28540039 C-203.31261086 552.90739297 -203.28153166 555.52858271 -203.25 558.15039062 C-203.15205783 573.38430377 -204.9752497 587.48848711 -210.25 601.875 C-210.59957764 602.84783936 -210.94915527 603.82067871 -211.30932617 604.82299805 C-218.5950804 624.69100974 -228.45064619 643.48327274 -242.5625 659.375 C-243.26761719 660.21160156 -243.97273437 661.04820312 -244.69921875 661.91015625 C-253.77919464 672.45727366 -265.28390633 683.81793196 -279.71875 685.6484375 C-291.18964551 686.14550964 -300.17436473 680.70718207 -308.5625 673.375 C-309.35140625 672.72917969 -310.1403125 672.08335937 -310.953125 671.41796875 C-318.26310067 665.2228793 -323.98696609 658.11203491 -329.5625 650.375 C-330.23732422 649.43986572 -330.23732422 649.43986572 -330.92578125 648.48583984 C-360.7424908 606.43525703 -366.64945609 559.23413452 -358.5625 509.375 C-357.15827911 501.3141582 -355.41214784 493.34370595 -353.5625 485.375 C-353.3262793 484.33569336 -353.09005859 483.29638672 -352.84667969 482.22558594 C-337.32645438 414.09865315 -310.91914521 347.07354923 -274.5625 287.375 C-273.59913482 285.76629853 -272.63685484 284.15694657 -271.67578125 282.546875 C-248.81527444 244.45006642 -221.70201491 208.68584472 -191.79296875 175.8515625 C-189.90472027 173.75497837 -188.04455708 171.63919306 -186.19140625 169.51171875 C-175.82304245 157.64798413 -164.75039517 146.46058704 -153.625 135.3125 C-153.03932251 134.72423431 -152.45364502 134.13596863 -151.85021973 133.52987671 C-146.15659542 127.81642337 -140.48167306 122.14443764 -134.34008789 116.9074707 C-131.21218966 114.2108882 -128.24671253 111.34041779 -125.25 108.5 C-120.05146569 103.60650152 -114.74259647 98.9638988 -109.16015625 94.5078125 C-106.42695114 92.26370725 -103.84113407 89.90632247 -101.25 87.5 C-94.99119529 81.73101479 -88.30824966 76.55494791 -81.5625 71.375 C-96.67968931 77.9453685 -111.08065024 85.8817564 -124.5625 95.375 C-125.10825684 95.75624023 -125.65401367 96.13748047 -126.21630859 96.53027344 C-143.23257918 108.43063512 -159.26325547 121.33232167 -174.5625 135.375 C-175.11131836 135.87338379 -175.66013672 136.37176758 -176.22558594 136.88525391 C-188.46169052 148.00807901 -199.98847454 159.65474431 -210.30859375 172.59765625 C-211.93658375 174.60372365 -213.58033086 176.55795776 -215.28515625 178.49609375 C-227.85095244 192.78706028 -238.65738885 208.3722072 -249.50390625 223.984375 C-250.52329557 225.44801553 -251.5428204 226.91156169 -252.5625 228.375 C-253.04960449 229.07818359 -253.53670898 229.78136719 -254.03857422 230.50585938 C-255.18790016 232.14693058 -256.37144804 233.76395684 -257.5625 235.375 C-257.8925 235.375 -258.2225 235.375 -258.5625 235.375 C-259.96388615 175.27110491 -234.41366448 122.26543356 -193.5625 79.375 C-180.25820546 65.45992947 -164.82088912 53.61983668 -148.5625 43.375 C-147.6662793 42.80918213 -147.6662793 42.80918213 -146.75195312 42.23193359 C-142.41138721 39.5137779 -138.01155936 36.91132939 -133.5625 34.375 C-132.86737305 33.97812988 -132.17224609 33.58125977 -131.45605469 33.17236328 C-118.0127906 25.59060293 -103.99848909 19.78977842 -89.5625 14.375 C-88.48838867 13.96725342 -88.48838867 13.96725342 -87.39257812 13.55126953 C-75.14237602 8.95903716 -62.29899168 6.24907695 -49.5625 3.375 C-48.42385498 3.11541504 -48.42385498 3.11541504 -47.26220703 2.85058594 C-11.43438263 -5.21568331 -11.43438263 -5.21568331 0 0 Z " fill="#FDFDFD" transform="translate(794.5625,169.625)"/>
<path d="M0 0 C1.1235791 0.01144043 2.2471582 0.02288086 3.40478516 0.03466797 C25.1334758 0.65211139 47.20703137 5.59948386 67.6875 12.6875 C68.63963379 13.00557617 69.59176758 13.32365234 70.57275391 13.65136719 C108.28930495 26.27750874 142.81723291 45.7896922 171.87890625 73.06640625 C174.50186811 75.51426078 177.17751001 77.88502033 179.875 80.25 C194.13337322 93.12780058 205.88212637 109.2103401 215.6875 125.6875 C216.0906543 126.36361328 216.49380859 127.03972656 216.90917969 127.73632812 C229.99750153 149.92913211 239.30710557 174.23802534 243.6875 199.6875 C243.89117187 200.82316406 244.09484375 201.95882812 244.3046875 203.12890625 C246.01272114 213.97374997 245.89319321 224.73671013 245.6875 235.6875 C242.44294896 232.55463747 239.61077436 229.42547194 237 225.75 C236.3090625 224.78449219 235.618125 223.81898438 234.90625 222.82421875 C233.40540256 220.7024221 231.90542646 218.58000888 230.40625 216.45703125 C220.99363303 203.160887 211.17616907 190.15716559 200.6875 177.6875 C200.21425293 177.12401855 199.74100586 176.56053711 199.25341797 175.97998047 C191.5637771 166.83791798 191.5637771 166.83791798 183.26171875 158.2578125 C181.47437556 156.4749044 179.83482352 154.60028625 178.1875 152.6875 C173.15257279 146.86761755 167.72922159 141.63646168 161.8984375 136.62109375 C159.4062611 134.44154019 156.98911332 132.1897672 154.5625 129.9375 C148.79273909 124.68360492 142.74976667 119.85757411 136.55419922 115.1171875 C135.30803341 114.16276074 134.06486536 113.20440733 132.82470703 112.2421875 C118.73473557 101.31213964 103.89819605 91.61148318 88.5 82.625 C87.74678467 82.18406006 86.99356934 81.74312012 86.2175293 81.28881836 C81.18119265 78.39836502 76.03487948 75.94843028 70.6875 73.6875 C75.35954134 77.92117697 80.0886432 82.0452156 85 86 C90.16744228 90.19040487 95.05461536 94.62354995 99.9296875 99.14453125 C102.09090548 101.13738239 104.27096969 103.08457785 106.5 105 C112.380737 110.10472222 118.01078833 115.48815437 123.6875 120.81689453 C125.58648013 122.59301584 127.49451874 124.3587165 129.40625 126.12109375 C137.69262036 133.78390962 145.76047237 141.65470242 153.75 149.625 C154.24322754 150.11563934 154.73645508 150.60627869 155.24462891 151.11178589 C160.36403864 156.20993597 165.3814274 161.35091468 170.0847168 166.83959961 C172.81247899 169.98452452 175.69929681 172.97891287 178.5625 176 C183.37683327 181.11906999 187.96840011 186.33020886 192.35546875 191.82421875 C195.17754366 195.2891784 198.11690033 198.6401353 201.0625 202 C206.67157999 208.42669943 211.99927326 215.02330467 217.20703125 221.77734375 C218.81384837 223.8505194 220.43696191 225.91022434 222.0625 227.96875 C233.52383675 242.51674495 244.0207749 257.61009228 254.3125 273 C254.71448608 273.60020966 255.11647217 274.20041931 255.53063965 274.81881714 C256.68206127 276.54013758 257.82993859 278.26376218 258.9765625 279.98828125 C259.64381348 280.99028564 260.31106445 281.99229004 260.99853516 283.0246582 C264.75229509 288.94288018 264.75229509 288.94288018 264.47607422 292.1171875 C263.61714218 294.9168273 262.4892226 297.25091087 261.0703125 299.8125 C260.54566406 300.76640625 260.02101563 301.7203125 259.48046875 302.703125 C258.93003906 303.68796875 258.37960937 304.6728125 257.8125 305.6875 C257.26980469 306.67234375 256.72710937 307.6571875 256.16796875 308.671875 C253.74473495 313.05621 251.28239437 317.40203627 248.6875 321.6875 C245.1638691 318.55067948 243.33065396 315.39338764 241.296875 311.15625 C240.9885675 310.52448853 240.68026001 309.89272705 240.36260986 309.24182129 C239.05597379 306.56396289 237.76818189 303.87719349 236.47998047 301.19042969 C232.14234169 292.17721204 227.48619041 283.86982866 221.6875 275.6875 C221.28587646 275.08832764 220.88425293 274.48915527 220.47045898 273.87182617 C212.39349343 262.83552668 196.91149869 259.11532021 184.6875 254.6875 C133.67561648 236.0522645 82.33997437 215.32269547 42.015625 177.828125 C40.19848764 176.15733427 38.37242118 174.59006935 36.4375 173.0625 C33.50998209 170.53418908 31.08678006 167.83949552 28.58984375 164.89453125 C27.30421019 163.40298513 25.9822544 161.9421076 24.62890625 160.51171875 C-9.57405689 124.23584875 -22.68740099 73.99954512 -21.49169922 25.32080078 C-21.09369456 17.25117501 -20.27599771 9.15360693 -14.87109375 2.83203125 C-10.4143866 -0.50442546 -5.35219863 -0.09666287 0 0 Z " fill="#FDFDFD" transform="translate(242.3125,168.3125)"/>
</svg>
